<mxfile host="65bd71144e">
    <diagram id="8CKtX1cFeEHQvU2uAylb" name="ARQUITETURA EM CAMADAS">
        <mxGraphModel dx="1164" dy="2479" grid="1" gridSize="10" guides="1" tooltips="1" connect="1" arrows="1" fold="1" page="1" pageScale="1" pageWidth="1100" pageHeight="1700" math="0" shadow="0">
            <root>
                <mxCell id="0"/>
                <mxCell id="1" parent="0"/>
                <mxCell id="2" value="&lt;h1&gt;&lt;font style=&quot;font-size: 16px;&quot;&gt;ECOMMERCE-NODE-API (BACK-END)&lt;/font&gt;&lt;/h1&gt;" style="verticalAlign=top;align=left;spacingTop=8;spacingLeft=2;spacingRight=12;shape=cube;size=10;direction=south;fontStyle=5;html=1;strokeWidth=3;fillColor=#B8B8B8;strokeColor=#FFFFFF;fontColor=#000000;" vertex="1" parent="1">
                    <mxGeometry x="25" y="90" width="965" height="570" as="geometry"/>
                </mxCell>
                <mxCell id="3" value="&lt;h1&gt;&lt;font style=&quot;font-size: 16px;&quot;&gt;ECOMMERCE-WEB-APP (FRONT-END)&lt;/font&gt;&lt;/h1&gt;" style="verticalAlign=top;align=left;spacingTop=8;spacingLeft=2;spacingRight=12;shape=cube;size=10;direction=south;fontStyle=5;html=1;strokeWidth=3;fillColor=#B8B8B8;strokeColor=#FFFFFF;fontColor=#000000;" vertex="1" parent="1">
                    <mxGeometry x="25" y="-120" width="965" height="190" as="geometry"/>
                </mxCell>
                <mxCell id="4" value="&lt;b&gt;DATABASE ( RELACIONAL )&lt;/b&gt;" style="shape=cylinder3;whiteSpace=wrap;html=1;boundedLbl=1;backgroundOutline=1;size=15;strokeColor=#FFFFFF;strokeWidth=3;fontSize=16;fontColor=#000000;fillColor=#B8B8B8;" vertex="1" parent="1">
                    <mxGeometry x="222.5" y="690" width="570" height="150" as="geometry"/>
                </mxCell>
                <mxCell id="5" value="" style="rounded=1;whiteSpace=wrap;html=1;strokeColor=#333333;strokeWidth=3;fontSize=16;fontColor=#ffffff;fillColor=#FF6666;movable=1;resizable=1;rotatable=1;deletable=1;editable=1;connectable=1;" vertex="1" parent="1">
                    <mxGeometry x="250" y="410" width="700" height="60" as="geometry"/>
                </mxCell>
                <mxCell id="6" value="&lt;b&gt;&amp;nbsp;Camada de Domínio&lt;/b&gt;" style="text;html=1;strokeColor=none;fillColor=none;align=center;verticalAlign=middle;whiteSpace=wrap;rounded=0;strokeWidth=3;fontSize=16;fontColor=#000000;movable=1;resizable=1;rotatable=1;deletable=1;editable=1;connectable=1;" vertex="1" parent="1">
                    <mxGeometry x="250" y="425" width="180" height="30" as="geometry"/>
                </mxCell>
                <mxCell id="17" style="edgeStyle=none;html=1;exitX=0.05;exitY=1;exitDx=0;exitDy=0;exitPerimeter=0;fontSize=16;fontColor=#000000;strokeWidth=4;strokeColor=#000000;dashed=1;entryX=0;entryY=0.5;entryDx=0;entryDy=0;" edge="1" parent="1" source="9" target="6">
                    <mxGeometry relative="1" as="geometry">
                        <mxPoint x="250" y="320" as="targetPoint"/>
                        <Array as="points">
                            <mxPoint x="96" y="440"/>
                        </Array>
                    </mxGeometry>
                </mxCell>
                <mxCell id="19" style="edgeStyle=none;html=1;exitX=0.11;exitY=0.95;exitDx=0;exitDy=0;exitPerimeter=0;entryX=0;entryY=0;entryDx=0;entryDy=0;dashed=1;strokeColor=#000000;strokeWidth=4;fontSize=16;fontColor=#000000;" edge="1" parent="1" source="9" target="14">
                    <mxGeometry relative="1" as="geometry">
                        <Array as="points">
                            <mxPoint x="150" y="305"/>
                        </Array>
                    </mxGeometry>
                </mxCell>
                <mxCell id="9" value="" style="rounded=1;whiteSpace=wrap;html=1;strokeColor=#333333;strokeWidth=3;fontSize=16;fontColor=#ffffff;fillColor=#99CCFF;movable=1;resizable=1;rotatable=1;deletable=1;editable=1;connectable=1;points=[[0,0,0,0,0],[0,0.25,0,0,0],[0,0.5,0,0,0],[0,0.75,0,0,0],[0,1,0,0,0],[0.05,1,0,0,0],[0.11,0.95,0,0,0],[0.25,0,0,0,0],[0.5,0,0,0,0],[0.75,0,0,0,0],[0.75,1,0,0,0],[1,0,0,0,0],[1,0.25,0,0,0],[1,0.5,0,0,0],[1,0.75,0,0,0],[1,1,0,0,0]];" vertex="1" parent="1">
                    <mxGeometry x="50" y="180" width="910" height="60" as="geometry"/>
                </mxCell>
                <mxCell id="10" value="&lt;b&gt;&amp;nbsp;Camada de Apresentação&lt;/b&gt;" style="text;html=1;strokeColor=none;fillColor=none;align=center;verticalAlign=middle;whiteSpace=wrap;rounded=0;strokeWidth=3;fontSize=16;fontColor=#000000;movable=1;resizable=1;rotatable=1;deletable=1;editable=1;connectable=1;" vertex="1" parent="1">
                    <mxGeometry x="50" y="195" width="230" height="30" as="geometry"/>
                </mxCell>
                <mxCell id="11" value="" style="rounded=1;whiteSpace=wrap;html=1;strokeColor=#4D4D4D;strokeWidth=3;fontSize=16;fontColor=#ffffff;fillColor=#FF66B3;movable=1;resizable=1;rotatable=1;deletable=1;editable=1;connectable=1;" vertex="1" parent="1">
                    <mxGeometry x="40" y="-30" width="910" height="60" as="geometry"/>
                </mxCell>
                <mxCell id="12" value="&lt;b&gt;Interface de Usuário&lt;/b&gt;" style="text;html=1;strokeColor=none;fillColor=none;align=center;verticalAlign=middle;whiteSpace=wrap;rounded=0;strokeWidth=3;fontSize=16;fontColor=#000000;movable=1;resizable=1;rotatable=1;deletable=1;editable=1;connectable=1;" vertex="1" parent="1">
                    <mxGeometry x="40" y="-15" width="230" height="30" as="geometry"/>
                </mxCell>
                <mxCell id="18" style="edgeStyle=none;html=1;exitX=0.25;exitY=1;exitDx=0;exitDy=0;entryX=0.25;entryY=0;entryDx=0;entryDy=0;dashed=1;strokeColor=#000000;strokeWidth=4;fontSize=16;fontColor=#000000;" edge="1" parent="1" source="13" target="5">
                    <mxGeometry relative="1" as="geometry"/>
                </mxCell>
                <mxCell id="13" value="" style="rounded=1;whiteSpace=wrap;html=1;strokeColor=#333333;strokeWidth=3;fontSize=16;fontColor=#ffffff;fillColor=#FFFF66;movable=1;resizable=1;rotatable=1;deletable=1;editable=1;connectable=1;" vertex="1" parent="1">
                    <mxGeometry x="250" y="290" width="700" height="60" as="geometry"/>
                </mxCell>
                <mxCell id="14" value="&lt;b&gt;&amp;nbsp;Camada de Aplicação&lt;/b&gt;" style="text;html=1;strokeColor=none;fillColor=none;align=center;verticalAlign=middle;whiteSpace=wrap;rounded=0;strokeWidth=3;fontSize=16;fontColor=#000000;movable=1;resizable=1;rotatable=1;deletable=1;editable=1;connectable=1;" vertex="1" parent="1">
                    <mxGeometry x="250" y="305" width="180" height="30" as="geometry"/>
                </mxCell>
                <mxCell id="20" style="edgeStyle=none;html=1;exitX=0.25;exitY=0;exitDx=0;exitDy=0;entryX=0.04;entryY=1;entryDx=0;entryDy=0;entryPerimeter=0;dashed=1;strokeColor=#000000;strokeWidth=4;fontSize=16;fontColor=#000000;" edge="1" parent="1" source="15" target="5">
                    <mxGeometry relative="1" as="geometry"/>
                </mxCell>
                <mxCell id="21" style="edgeStyle=none;html=1;exitX=0.1;exitY=0;exitDx=0;exitDy=-3;exitPerimeter=0;entryX=0;entryY=1;entryDx=0;entryDy=0;dashed=1;strokeColor=#000000;strokeWidth=4;fontSize=16;fontColor=#000000;" edge="1" parent="1" source="15" target="14">
                    <mxGeometry relative="1" as="geometry">
                        <Array as="points">
                            <mxPoint x="140" y="335"/>
                        </Array>
                    </mxGeometry>
                </mxCell>
                <mxCell id="15" value="" style="rounded=1;whiteSpace=wrap;html=1;strokeColor=#333333;strokeWidth=3;fontSize=16;fontColor=#ffffff;fillColor=#99FFCC;movable=1;resizable=1;rotatable=1;deletable=1;editable=1;connectable=1;points=[[0,0,0,0,0],[0,0.25,0,0,0],[0,0.5,0,0,0],[0,0.75,0,0,0],[0,1,0,0,0],[0.1,0,0,0,-3],[0.25,0,0,0,0],[0.25,1,0,0,0],[0.5,1,0,0,0],[0.75,0,0,0,0],[0.75,1,0,0,0],[1,0,0,0,0],[1,0.25,0,0,0],[1,0.5,0,0,0],[1,0.75,0,0,0],[1,1,0,0,0]];" vertex="1" parent="1">
                    <mxGeometry x="50" y="530" width="910" height="60" as="geometry"/>
                </mxCell>
                <mxCell id="16" value="&lt;b&gt;&amp;nbsp;Camada de Infraestrutura&lt;/b&gt;" style="text;html=1;strokeColor=none;fillColor=none;align=center;verticalAlign=middle;whiteSpace=wrap;rounded=0;strokeWidth=3;fontSize=16;fontColor=#000000;movable=1;resizable=1;rotatable=1;deletable=1;editable=1;connectable=1;" vertex="1" parent="1">
                    <mxGeometry x="50" y="545" width="230" height="30" as="geometry"/>
                </mxCell>
                <mxCell id="22" value="" style="curved=1;endArrow=classic;html=1;strokeColor=#000099;strokeWidth=3;fontSize=16;fontColor=#000000;" edge="1" parent="1">
                    <mxGeometry width="50" height="50" relative="1" as="geometry">
                        <mxPoint x="670" y="114" as="sourcePoint"/>
                        <mxPoint x="530" y="114" as="targetPoint"/>
                        <Array as="points">
                            <mxPoint x="630" y="790"/>
                            <mxPoint x="540" y="404"/>
                        </Array>
                    </mxGeometry>
                </mxCell>
            </root>
        </mxGraphModel>
    </diagram>
</mxfile>